# xmcd CD database file
#
# Track frame offsets:
#	150
#	16460
#	30142
#	44940
#	62825
#	78152
#	94507
#	112790
#	131012
#	149642
#	166870
#	185655
#	197497
#	213487
#	231707
#	244482
#	263742
#	275885
#
# Disc length: 3917 seconds
#
# Revision: 0
# Processed by: cddbd v1.5.1PL0 Copyright (c) Steve Scherf et al.
# Submitted via: CDex 1.51
#
DISCID=0c0f4b12
DTITLE=Dream World - Country/Folk-Evergreens  [CD2)
DYEAR=1900
DGENRE=Country
TTITLE0=Countryroads
TTITLE1=Always On My Mind
TTITLE2=Green Green Grass Of Home
TTITLE3=Are You Lonesome Tonight
TTITLE4=Blowin' In The Wind
TTITLE5=The Dock Of The Bay
TTITLE6=City Of New Orleans
TTITLE7=Streets Of London
TTITLE8=Gnetle On My Mind
TTITLE9=Cryin' In the Chapel
TTITLE10=Bridge Over Troubled Water
TTITLE11=I'm Walkin'
TTITLE12=Southern Nights
TTITLE13=Knockin' On Heavens Door
TTITLE14=I Walk The Line
TTITLE15=Island In The Sun
TTITLE16=Morning has Broken
TTITLE17=ProJoe Special: Little Girl
EXTD=
EXTT0=
EXTT1=
EXTT2=
EXTT3=
EXTT4=
EXTT5=
EXTT6=
EXTT7=
EXTT8=
EXTT9=
EXTT10=
EXTT11=
EXTT12=
EXTT13=
EXTT14=
EXTT15=
EXTT16=
EXTT17=
PLAYORDER=
